<?xml version="1.0" encoding="UTF-8"?>
<svg width="32" height="32" viewBox="0 0 32 32" fill="none" xmlns="http://www.w3.org/2000/svg">
  <circle cx="16" cy="16" r="16" fill="#2775CA"/>
  <path d="M16 4C9.37258 4 4 9.37258 4 16C4 22.6274 9.37258 28 16 28C22.6274 28 28 22.6274 28 16C28 9.37258 22.6274 4 16 4ZM16.6256 21.0162V23.2262H15.3648V21.0439C13.0149 20.8161 11.2857 19.6896 11.2119 17.1966H13.2886C13.3532 18.6596 14.3211 19.5011 16.0042 19.5011C17.5856 19.5011 18.6272 18.5674 18.6272 17.2889C18.6272 16.1532 17.8503 15.4886 16.0134 15.0874L14.7987 14.8043C12.3205 14.2447 11.1663 13.0445 11.1663 11.0855C11.1663 8.89869 12.8955 7.45183 15.3648 7.19738V5H16.6256V7.21584C18.8194 7.47952 20.3547 8.71045 20.4193 11.0024H18.3887C18.3241 9.55551 17.4187 8.73665 15.9831 8.73665C14.5567 8.73665 13.5796 9.53705 13.5796 10.8432C13.5796 11.9051 14.3473 12.5512 15.9923 12.9155L17.1926 13.1894C19.8722 13.7859 21.0448 14.8939 21.0448 16.9183C21.0448 19.2728 19.2417 20.7535 16.6256 21.0162Z" fill="white"/>
</svg> 